<svg id="Capa_1" enable-background="new 0 0 490 490" height="512" viewBox="0 0 490 490" width="512" xmlns="http://www.w3.org/2000/svg"><g><path d="m434.5 145.5h-40.5v30h40.5c14.061 0 25.5 11.439 25.5 25.5v136.5c0 12.563-9.705 22.895-22.01 23.911v-.001c-9.854-35.013-41.679-59.883-78.99-59.91h-143v-22l80-44v-211l-60.5 63.5h-153l-58.5-63.5v211l78 44v114h-30c-39.76 0-72 32.24-72 72h131c-.238-50.823 44.04-90.044 94.25-86.25v-27.75h30v57.75h-38c-31.02 0-56.25 25.23-56.25 56.25h124v-10c0-29.57 20.48-54.45 48-61.2v-17.8h30v46h-15c-18.2 0-33 14.8-33 33v10h44c42.664 0 77.708-32.577 81.631-74.212 27.614-2.358 49.369-25.574 49.369-53.788v-136.5c0-30.603-24.897-55.5-55.5-55.5zm-328.61 44.61-37-37 21.22-21.22 37 37zm74.11 39.39h-42v-30h42zm12.89-60.61 37-37 21.22 21.22-37 37z"/></g></svg>